<?xml version="1.0" encoding="UTF-8"?>
<svg id="Camada_1" data-name="Camada 1" xmlns="http://www.w3.org/2000/svg" viewBox="0 0 404.16 70.08">
  <defs>
    <style>
      .cls-1 {
        fill: #76b1a5;
      }

      .cls-2 {
        fill: #920857;
      }

      .cls-3 {
        fill: #910857;
      }

      .cls-4 {
        fill: #fefefe;
      }
    </style>
  </defs>
  <path class="cls-4" d="M0,28.6V0h404.16v70.08H0v-32.89c4.77.11,10.01.07,15.02-.07l1.29,1.02c.37,0,.92.08.96.32.48,3.09.31,12.25,0,15.56l-.96.56c1.45-.38,1.78.47.48,1.19.05-.37.14-.9.42-.95.69-.14,7.57-.14,8.26,0l.67.95c-.98-.91-.41-1.36.72-.72-.37,0-.94-.09-.96-.32-.24-3.06-.53-13.48,0-16.03l.96-.57c0-.37.09-.94.32-.95,2.13-.17,13.29-.4,14.69,0l.56.95c-.99-.92-.4-1.36.72-.72-1.04-.63-1.36-2.14-.96-4.54-.37-2-.05-3.35.96-4.04-.92.98-1.36.4-.72-.72,0,.36-.05.85-.32.95-.71.26-13.01.12-14.69,0l-.56-.95c-1.72-1.5-1.63-7.31.92-8.4,4.01-.4,8.04-.43,12.09-.1,3.76,1.74,3.25-6.96,2.72-8.28s-22.96-.71-26.29-.15c.37,0,.93.08.96.32.39,3.61.43,12.48,0,16.03l-.96.57c-.09.38-.24.94-.53.97-1.91.19-14.06.74-15.04.44l-.73-.93Z"/>
  <path class="cls-3" d="M0,28.6l16.3-.48V11.2c.86-1.04,1.85-1.1,3.09-1.21,5.07-.46,16.63-.55,21.61.01.9.1,1.75.25,2.39.96-.04,2.74,1.73,9.18-1.9,9.56-2.97.32-11.77-.71-13.69.21-1.76.85-.66,5.63-.96,7.39h15.58l.72.72v8.58l-.72.72h-15.58v16.92l-.72.72h-9.35c.16-.47-.48-1.04-.48-1.19v-16.45c-4.56-.33-9.69.44-14.17.02-.91-.08-1.47-.42-2.13-.98v-8.58Z"/>
  <path class="cls-1" d="M103.08,11.2c.86-1.04,1.85-1.1,3.09-1.21,5.64-.51,16.74-.38,22.14.91,18.19,4.35,22.65,28.98,8.29,40.31-2.11,1.67-7.67,4.57-10.27,4.57h-22.53l-.72-.72V11.2Z"/>
  <path class="cls-3" d="M334.64,20.5v9.06h15.1c.16,0,.72.64,1.2.48v8.82c-.35.28-1.4,1.19-1.68,1.19h-14.62v15.02l-.72.72h-9.11l-.72-.72V11.2l1.08-.83,24.83-.14,1.18.73c.29,1.4.86,9.54-.97,9.54h-15.58Z"/>
  <path class="cls-1" d="M46.03,11.2c.84-2.74,11.07.21,13.19,1.19,17.4,7.99,17.04,34.3-.73,41.71-.73.31-4.62,1.68-5.03,1.68h-23.01l-.72-.72v-8.1c0-.08.74-.84.96-.95,6.6-.97,14.17.51,20.73-.37,13.42-1.8,13.69-23.09.07-25.09-1.08-.16-5.46.34-5.46-1.24v-8.1Z"/>
  <path class="cls-1" d="M163.37,22.53c24.71-3.35,27.39,31.62,5.58,34.15-23.73,2.75-26.64-31.3-5.58-34.15Z"/>
  <path class="cls-1" d="M258.78,22.53c24.71-3.35,27.39,31.62,5.58,34.15-23.73,2.75-26.64-31.3-5.58-34.15Z"/>
  <path class="cls-3" d="M380.67,23.36l6.24,17.64,6.47-17.64h9.11l.64,1.55-14.38,42.95c-1.05,1.78-7.97,1.58-9.81.86-.46-.18-.82.11-.7-.77l3.79-13.23-11.42-30.19.71-1.16h9.35Z"/>
  <path class="cls-1" d="M217.18,55.78h-8.87l-.96-2.38c-4.57,5.21-13.64,4.49-16.94-1.75-2.4-4.54-2.65-20.31-2.01-25.67.13-1.06.36-1.9,1.21-2.61h8.15l.72.72v19.55c0,3.88,5.85,5.67,8.16,2.39.21-.28.95-1.74.95-1.91v-20.02l.72-.72h8.63l.72.72v30.51c0,.15-.64.72-.48,1.19Z"/>
  <path class="cls-1" d="M236.12,12.87c2.17.57.84,8.55,1.2,10.49l4.32.23c1.35.79,1.33,7.75.36,8.71l-4.68.59-.24,21.93c-.1.22-.88.96-.95.96h-8.15l-.72-.72v-22.17l-4.32-.24c-1.69-.81-.88-6.97-.75-8.85l5.06-.45v-9.77l.72-.72c2.23.38,6.19-.52,8.15,0Z"/>
  <path class="cls-2" d="M356.7,9.06h8.87l.72.72v45.29l-.72.72h-8.15c-.08,0-.85-.74-.95-.96l.23-45.76Z"/>
  <path class="cls-1" d="M284.78,23.36h8.87l.72,4.29,2.38-3.11,5.16-1.79.86.6c.42.72.42,8.68,0,9.55-.74,1.52-3.49.56-5.21,1.49-1.09.58-3.18,3.36-3.18,4.47v16.21l-.72.72h-8.15c-.08,0-.85-.74-.95-.96l.23-31.46Z"/>
  <path class="cls-4" d="M113.63,45.77v-25.27h12.23c.72,0,4.55,2.21,5.27,2.86,5.3,4.76,4.9,15.35-.71,19.79-1.21.96-4.57,2.61-6,2.61h-10.79Z"/>
  <path class="cls-4" d="M164.79,32.05c11-1.97,12.32,14.42,2.22,15.11s-10.65-13.61-2.22-15.11Z"/>
  <path class="cls-4" d="M260.2,32.05c11-1.97,12.32,14.42,2.22,15.11s-10.65-13.61-2.22-15.11Z"/>
</svg>