<svg height="512" viewBox="0 0 64 64" width="512" xmlns="http://www.w3.org/2000/svg"><path d="m11 59.12c4.63 3.3 12.84 4.8 20.91 4.8a52.17 52.17 0 0 0 15.66-2.18h.62a13.57 13.57 0 0 0 8.13-2.7l4.29 4.29a2 2 0 0 0 2.83-2.83l-4.29-4.29a13.63 13.63 0 0 0 -9.87-21.71 24.79 24.79 0 0 0 -7.85-5.13 16.19 16.19 0 1 0 -18.86 0 24.92 24.92 0 0 0 -15.5 23.07c0 1.78.68 4.39 3.93 6.68zm46.86-11a9.68 9.68 0 0 1 -9.67 9.66h-.72-.07a9.66 9.66 0 1 1 10.46-9.62zm-38-31.86a12.19 12.19 0 1 1 12.14 12.17 12.21 12.21 0 0 1 -12.19-12.18zm8.14 15.65a16.17 16.17 0 0 0 4 .52 15.79 15.79 0 0 0 4-.53 20.84 20.84 0 0 1 7.77 3.27 13.65 13.65 0 0 0 -3.39 24.17c-9.82 1.54-21.94.2-27.11-3.48-1.5-1.06-2.23-2.18-2.23-3.42a20.9 20.9 0 0 1 16.96-20.53z"/></svg>