<?xml version="1.0" encoding="iso-8859-1"?>
<!-- Generator: Adobe Illustrator 19.0.0, SVG Export Plug-In . SVG Version: 6.00 Build 0)  -->
<svg version="1.1" id="Capa_1" xmlns="http://www.w3.org/2000/svg" xmlns:xlink="http://www.w3.org/1999/xlink" x="0px" y="0px"
	 viewBox="0 0 512.001 512.001" style="enable-background:new 0 0 512.001 512.001;" xml:space="preserve">
<g>
	<g>
		<path d="M312.891,474.531c-53.614,14.02-110.427,7.746-159.971-17.673c-49.891-25.596-88.282-68.611-108.101-121.119
			c-18.354-48.63-19.542-100.392-3.436-149.692c11.942-36.555,33.142-69.509,60.999-95.462l-5.138,42.64l29.938,3.609l11.327-93.99
			l-92.81-10.973l-3.541,29.946l41.602,4.92c-32.521,29.685-57.238,67.702-71.039,109.947
			c-8.855,27.105-13.104,55.244-12.628,83.637c0.493,29.38,6.049,58.337,16.516,86.069c22.465,59.521,65.987,108.283,122.548,137.3
			c36.557,18.754,76.608,28.312,116.888,28.312c21.594,0,43.257-2.748,64.477-8.298L312.891,474.531z"/>
	</g>
</g>
<g>
	<g>
		<path d="M496.473,343.458c20.968-57.4,20.612-120.547-1-177.808C472.07,103.642,426.264,53.749,366.492,25.161
			C306.911-3.335,239.593-7.787,176.937,12.627l9.342,28.671c55.258-18.004,114.637-14.073,167.201,11.067
			c52.727,25.218,93.134,69.231,113.78,123.934c19.062,50.506,19.377,106.197,0.888,156.814
			c-14.621,40.026-40.207,74.946-73.408,100.816l5.589-46.375l-29.938-3.609l-11.328,93.99l92.809,10.974l3.541-29.946
			l-38.058-4.501C453.006,425.489,480.51,387.157,496.473,343.458z"/>
	</g>
</g>
<g>
	<g>
		<path d="M390.318,293.388c0-38.407-24.113-71.284-57.994-84.3c8.693-10.919,13.906-24.726,13.906-39.735
			c0-35.245-28.674-63.918-63.919-63.918c-32.365,0-59.171,24.185-63.338,55.428c-31.243,4.167-55.428,30.973-55.428,63.338
			c0,15.228,5.362,29.223,14.284,40.215c-33.232,13.332-56.763,45.877-56.763,83.819v15.077h213.026v-15.077
			c0-14.24-3.319-27.717-9.216-39.707l65.442-0.083V293.388z M282.312,135.59c18.617,0,33.764,15.146,33.764,33.763
			c0,16.801-12.337,30.772-28.427,33.338c-6.441-17.967-20.707-32.233-38.675-38.674C251.54,147.927,265.511,135.59,282.312,135.59z
			 M227.465,190.438c18.617,0,33.764,15.147,33.764,33.764c0,18.618-15.147,33.764-33.764,33.764
			c-18.618,0-33.764-15.147-33.764-33.764C193.7,205.585,208.847,190.438,227.465,190.438z M153.135,333.159
			c6.708-25.874,30.259-45.038,58.202-45.038h32.485c27.942,0,51.493,19.164,58.202,45.038H153.135z M300.961,278.405
			c-7.114-5.832-15.131-10.599-23.806-14.059c7.087-8.756,11.909-19.411,13.574-31.073h9.32c27.95,0,51.507,19.174,58.207,45.059
			L300.961,278.405z"/>
	</g>
</g>
<g>
</g>
<g>
</g>
<g>
</g>
<g>
</g>
<g>
</g>
<g>
</g>
<g>
</g>
<g>
</g>
<g>
</g>
<g>
</g>
<g>
</g>
<g>
</g>
<g>
</g>
<g>
</g>
<g>
</g>
</svg>
